<svg width="2381" height="1657" viewBox="0 0 2381 1657" fill="none" xmlns="http://www.w3.org/2000/svg">
<path d="M1.40224 1526.97C-2.54326 1496.27 10.8778 1045.41 135.218 672.1C246.832 337.475 506.384 146.76 810.162 387.267C1135.65 645.03 1416.4 670.951 1642.78 595.759C1866.2 521.212 2014.77 296.591 2081.5 153.358C2226.32 -156.168 2440.25 35.2896 2365.1 442.537C2329.65 631.978 2236.18 684.943 2074.21 704.6C1904.91 725.146 1654.78 681.532 1307.84 770.414C973.245 856.468 596.719 1063.14 384.994 1326.2C159.667 1606.4 34.4356 1794.83 1.40224 1526.97Z" fill="url(#paint0_linear_36_866)"/>
<defs>
<linearGradient id="paint0_linear_36_866" x1="2257" y1="1283.41" x2="-32.7127" y2="745.399" gradientUnits="userSpaceOnUse">
<stop stop-color="#FFD97D"/>
<stop offset="1" stop-color="#FFA039"/>
</linearGradient>
</defs>
</svg>
