<svg width="18" height="19" viewBox="0 0 18 19" fill="none" xmlns="http://www.w3.org/2000/svg">
<path d="M6.68571 0C8.45888 0 10.1594 0.743518 11.4132 2.06699C12.667 3.39046 13.3714 5.18547 13.3714 7.05714C13.3714 8.80514 12.7646 10.412 11.7669 11.6497L12.0446 11.9429H12.8571L18 17.3714L16.4571 19L11.3143 13.5714V12.7137L11.0366 12.4206C9.864 13.4737 8.34171 14.1143 6.68571 14.1143C4.91255 14.1143 3.21202 13.3708 1.9582 12.0473C0.704386 10.7238 0 8.92881 0 7.05714C0 5.18547 0.704386 3.39046 1.9582 2.06699C3.21202 0.743518 4.91255 0 6.68571 0ZM6.68571 2.17143C4.11429 2.17143 2.05714 4.34286 2.05714 7.05714C2.05714 9.77143 4.11429 11.9429 6.68571 11.9429C9.25714 11.9429 11.3143 9.77143 11.3143 7.05714C11.3143 4.34286 9.25714 2.17143 6.68571 2.17143Z" fill="black"/>
</svg>
